HIERARCHY
ROOT Model_Hips
{
	OFFSET 0.000000 96.915077 0.000000
	CHANNELS 6 Xposition Yposition Zposition Xrotation Yrotation Zrotation
	JOINT Model_Spine
	{
		OFFSET 0.000000 11.137703 -1.289900
		CHANNELS 3 Xrotation Yrotation Zrotation
		JOINT Model_Spine1
		{
			OFFSET 0.000000 12.993942 -1.504922
			CHANNELS 3 Xrotation Yrotation Zrotation
			JOINT Model_Spine2
			{
				OFFSET 0.000000 14.850220 -1.719911
				CHANNELS 3 Xrotation Yrotation Zrotation
				JOINT Model_Neck
				{
					OFFSET 0.000000 16.706543 -1.934903
					CHANNELS 3 Xrotation Yrotation Zrotation
					JOINT Model_Head
					{
						OFFSET 0.000000 10.471298 2.002100
						CHANNELS 3 Xrotation Yrotation Zrotation
						JOINT Model_HeadTop_End
						{
							OFFSET 0.000000 20.842606 3.985100
							CHANNELS 3 Xrotation Yrotation Zrotation
							End Site
							{
								OFFSET 0.000000 21.220154 0.000000
							}
						}
					}
				}
				JOINT Model_LeftShoulder
				{
					OFFSET 7.008500 14.768600 -1.919946
					CHANNELS 3 Xrotation Yrotation Zrotation
					JOINT Model_LeftArm
					{
						OFFSET 14.126271 -3.718048 0.029937
						CHANNELS 3 Xrotation Yrotation Zrotation
						JOINT Model_LeftForeArm
						{
							OFFSET 28.282801 0.000000 0.000000
							CHANNELS 3 Xrotation Yrotation Zrotation
							JOINT Model_LeftHand
							{
								OFFSET 26.204689 0.000000 0.000000
								CHANNELS 3 Xrotation Yrotation Zrotation
								End Site
								{
									OFFSET 26.204704 0.000000 0.000000
								}
							}
						}
					}
				}
				JOINT Model_RightShoulder
				{
					OFFSET -7.008500 14.768555 -1.949840
					CHANNELS 3 Xrotation Yrotation Zrotation
					JOINT Model_RightArm
					{
						OFFSET -14.126281 -3.718018 -0.029932
						CHANNELS 3 Xrotation Yrotation Zrotation
						JOINT Model_RightForeArm
						{
							OFFSET -28.283798 0.000000 -0.000001
							CHANNELS 3 Xrotation Yrotation Zrotation
							JOINT Model_RightHand
							{
								OFFSET -26.204193 0.000000 -0.000001
								CHANNELS 3 Xrotation Yrotation Zrotation
								End Site
								{
									OFFSET -26.204208 0.000000 -0.000001
								}
							}
						}
					}
				}
			}
		}
	}
	JOINT Model_LeftUpLeg
	{
		OFFSET 8.327700 -6.193199 -0.402800
		CHANNELS 3 Xrotation Yrotation Zrotation
		JOINT Model_LeftLeg
		{
			OFFSET 0.735802 -42.108742 -0.610721
			CHANNELS 3 Xrotation Yrotation Zrotation
			JOINT Model_LeftFoot
			{
				OFFSET -0.735806 -36.833748 -0.172876
				CHANNELS 3 Xrotation Yrotation Zrotation
				JOINT Model_LeftToeBase
				{
					OFFSET -0.565857 -11.977769 16.297714
					CHANNELS 3 Xrotation Yrotation Zrotation
					JOINT Model_LeftToe_End
					{
						OFFSET -0.111712 -0.312793 7.857784
						CHANNELS 3 Xrotation Yrotation Zrotation
						End Site
						{
							OFFSET -0.111712 -0.312793 7.857784
						}
					}
				}
			}
		}
	}
	JOINT Model_RightUpLeg
	{
		OFFSET -8.327700 -6.193199 -0.516500
		CHANNELS 3 Xrotation Yrotation Zrotation
		JOINT Model_RightLeg
		{
			OFFSET -0.735785 -42.108738 -0.434061
			CHANNELS 3 Xrotation Yrotation Zrotation
			JOINT Model_RightFoot
			{
				OFFSET 0.735776 -36.833748 -0.021630
				CHANNELS 3 Xrotation Yrotation Zrotation
				JOINT Model_RightToeBase
				{
					OFFSET 0.565817 -11.977745 15.903093
					CHANNELS 3 Xrotation Yrotation Zrotation
					JOINT Model_RightToe_End
					{
						OFFSET 0.111702 -0.312791 7.811342
						CHANNELS 3 Xrotation Yrotation Zrotation
						End Site
						{
							OFFSET 0.111702 -0.312791 7.811342
						}
					}
				}
			}
		}
	}
}
MOTION
Frames: 14
Frame Time: 0.016667
0.290673 91.977905 0.257535 1.623349 155.763215 2.083820 5.548109 -0.028014 -0.409178 11.095626 0.009772 -0.734629 11.095627 0.009765 -0.734624 -3.492508 -0.576864 -1.094341 -3.492509 -0.576866 -1.094334 0.000001 0.000000 -0.000000 9.458520 -6.444337 -14.996457 -9.678073 10.609537 -35.777204 0.014643 -55.260977 0.178973 0.000001 0.000000 0.000001 -3.413061 0.044915 -0.357069 -8.509092 -11.385587 60.673581 -0.093527 56.136799 -0.118062 -0.000000 0.000003 0.000001 -20.400843 -5.883588 9.666498 28.627689 -0.850658 -1.168338 -7.214718 -2.331801 -12.656093 0.002988 -0.026185 0.062609 0.000000 0.000003 -0.000000 -18.597634 -13.386832 -18.430393 41.629716 0.670844 1.579279 -21.236019 -8.504086 8.574201 -0.012183 -0.109699 0.262085 0.000000 0.000003 0.000000 
0.258652 91.844810 0.280889 1.095846 154.815800 2.142516 5.541297 -0.066957 -0.460129 11.081762 -0.077130 -0.835932 11.081757 -0.077126 -0.835932 -3.641231 -0.708557 -1.041616 -3.641210 -0.708567 -1.041615 0.000002 0.000000 0.000000 9.412436 -6.453397 -14.019400 -8.662132 10.477065 -35.400491 0.010195 -54.481926 0.179142 0.000002 0.000001 0.000001 -3.299636 0.252113 -0.421551 -8.140528 -9.974495 59.691837 -0.093587 55.025414 -0.121917 0.000002 0.000003 -0.000002 -21.302365 -4.689547 10.276214 29.606343 -0.865027 -1.219315 -7.755565 -2.797145 -12.572694 0.346321 0.059125 -0.008207 0.000000 -0.000004 -0.000000 -19.367678 -12.513332 -18.054920 42.141888 0.674573 1.594553 -21.351077 -8.390465 8.533240 -0.012194 -0.109701 0.262082 0.000000 -0.000001 0.000000 
0.216535 91.637245 0.307932 0.303670 153.425201 2.260886 5.532401 -0.105532 -0.516448 11.063668 -0.166382 -0.951350 11.063660 -0.166377 -0.951352 -3.774177 -0.837867 -0.992949 -3.774176 -0.837870 -0.992951 -0.000000 -0.000000 -0.000000 9.287398 -6.480147 -13.016980 -7.148112 10.286352 -34.868133 0.002842 -53.374383 0.177121 -0.000001 0.000000 -0.000000 -3.131417 0.557781 -0.519419 -7.620060 -7.972471 58.297304 -0.094652 53.382853 -0.125874 0.000001 0.000001 -0.000001 -22.519938 -3.360147 11.085733 30.975847 -0.883648 -1.279341 -8.528453 -3.042432 -12.537506 0.690412 0.188220 -0.109176 0.000000 0.000004 0.000000 -20.512993 -11.318768 -17.548692 42.875908 0.681450 1.616636 -21.507376 -8.121875 8.479983 -0.012206 -0.109700 0.262092 -0.000000 -0.000000 0.000000 
0.136157 91.238365 0.352592 -1.208115 150.826040 2.579675 5.517000 -0.143136 -0.588538 11.032432 -0.262069 -1.106972 11.032431 -0.262068 -1.106973 -3.864244 -0.958950 -0.953073 -3.864256 -0.958963 -0.953067 0.000000 0.000001 0.000000 8.947998 -6.559100 -11.945472 -4.288825 9.928073 -33.890903 -0.012152 -51.337027 0.169223 0.000001 -0.000001 -0.000001 -2.814935 1.132002 -0.706644 -6.670049 -4.296621 55.732663 -0.098540 50.295928 -0.129461 0.000003 -0.000003 0.000001 -24.667588 -1.611855 12.471751 33.458597 -0.910192 -1.352630 -9.947128 -2.772443 -12.573238 0.912784 0.434030 -0.160648 -0.000000 -0.000005 -0.000000 -22.694728 -9.192525 -16.590243 44.233091 0.695096 1.657627 -21.781711 -7.540117 8.391673 -0.012210 -0.109708 0.262096 0.000000 -0.000003 0.000000 
0.038803 90.711205 0.394674 -3.185094 147.524955 3.177936 5.500366 -0.178264 -0.666472 10.998610 -0.359423 -1.282565 10.998612 -0.359418 -1.282565 -3.933371 -1.076720 -0.917043 -3.933375 -1.076758 -0.917035 0.000002 0.000004 -0.000001 8.482512 -6.666476 -10.834781 -0.632539 9.485287 -32.710964 -0.030052 -48.869645 0.157705 -0.000000 0.000001 -0.000001 -2.413237 1.858740 -0.950861 -5.525528 0.166522 52.613774 -0.105269 46.386461 -0.129185 0.000000 -0.000001 0.000001 -27.234350 0.105924 14.188796 36.488097 -0.940440 -1.435218 -11.717818 -1.968749 -12.713216 1.030856 0.753148 -0.149486 0.000000 -0.000001 0.000000 -25.551968 -6.839025 -15.377066 45.917111 0.709793 1.708306 -22.110608 -6.500065 8.293227 -0.012206 -0.109712 0.262090 0.000000 -0.000002 0.000000 
-0.069902 90.075493 0.411584 -5.579431 143.722248 4.163090 5.485416 -0.210076 -0.745101 10.967960 -0.456348 -1.467951 10.967968 -0.456348 -1.467955 -3.990950 -1.193684 -0.882993 -3.990952 -1.193676 -0.882995 0.000000 0.000004 -0.000002 7.923494 -6.793115 -9.696481 3.618973 8.990134 -31.439842 -0.048246 -46.189701 0.144584 -0.000000 0.000001 -0.000000 -1.949886 2.693281 -1.242106 -4.293305 5.023898 49.216332 -0.114442 41.886900 -0.125061 0.000001 -0.000001 -0.000000 -29.891660 1.496406 16.033594 39.756841 -0.969949 -1.529382 -13.672465 -0.430127 -12.953926 1.053446 1.130664 -0.071973 0.000000 -0.000002 -0.000000 -28.914687 -4.679167 -14.126056 47.760234 0.723570 1.763427 -22.417799 -4.741980 8.199474 -0.012188 -0.109744 0.262090 0.000000 -0.000000 0.000000 
-0.173542 89.346985 0.393086 -8.371233 139.627986 5.639886 5.475039 -0.237395 -0.821144 10.946327 -0.549791 -1.653780 10.946316 -0.549781 -1.653779 -4.046584 -1.311878 -0.848110 -4.046588 -1.311897 -0.848105 -0.000000 -0.000002 0.000001 7.303193 -6.929769 -8.542127 8.264785 8.477107 -30.187459 -0.064737 -43.516201 0.131103 0.000001 -0.000002 -0.000002 -1.448416 3.591181 -1.568743 -3.068862 9.890815 45.806087 -0.120219 37.030079 -0.109133 0.000000 0.000000 0.000001 -32.549290 2.596787 17.929028 43.194089 -0.997508 -1.632086 -15.780696 1.625587 -13.257562 1.160688 1.553939 -0.106802 -0.000000 0.000001 -0.000000 -32.628346 -2.784069 -12.813174 49.750446 0.736299 1.822278 -22.750925 -2.445202 8.099803 -0.012199 -0.109729 0.262093 0.000001 -0.000002 0.000000 
-0.250495 88.539711 0.319445 -11.561552 135.465546 7.695578 5.472243 -0.260088 -0.891623 10.939728 -0.638330 -1.830238 10.939722 -0.638319 -1.830247 -4.109893 -1.433780 -0.810313 -4.109874 -1.433787 -0.810305 -0.000002 0.000004 -0.000003 6.653654 -7.067125 -7.383018 13.104356 7.983224 -29.063449 -0.079154 -41.067264 0.117467 0.000000 -0.000002 0.000001 -0.932261 4.507685 -1.920182 -1.932362 14.389578 42.641172 -0.109145 32.047671 -0.072580 0.000000 -0.000000 -0.000000 -34.975889 3.386359 19.697350 46.625856 -1.021025 -1.736450 -17.952678 4.147501 -13.647713 1.162462 2.006318 -0.041710 -0.000000 -0.000001 -0.000000 -36.479928 -1.314758 -11.576471 51.795131 0.750584 1.881837 -23.102574 0.384645 8.003776 -0.012179 -0.109738 0.262092 0.000000 0.000002 0.000000 
-0.272790 87.664352 0.188503 -15.153051 131.461798 10.378150 5.479907 -0.277934 -0.954056 10.954003 -0.719027 -1.988080 10.953995 -0.719057 -1.988068 -4.190110 -1.561291 -0.766478 -4.190164 -1.561295 -0.766452 0.000003 0.000001 -0.000000 6.007324 -7.195628 -6.230443 17.938911 7.547969 -28.176472 -0.086435 -39.060667 0.105274 -0.000002 0.000001 0.000003 -0.424254 5.398021 -2.283881 -0.991846 18.110267 40.023932 -0.089872 27.172371 -0.038653 -0.000002 -0.000000 0.000001 -37.191210 3.959475 21.313940 50.030272 -1.040930 -1.840381 -20.157196 6.854297 -14.044180 1.252821 2.477655 -0.072755 0.000000 -0.000003 -0.000000 -40.345589 -0.216297 -10.445353 53.947467 0.769248 1.943588 -23.543934 3.487589 7.887347 -0.012194 -0.109716 0.262095 0.000000 -0.000000 0.000000 
-0.111730 86.725945 -0.061096 -18.783169 127.815188 13.401909 5.497982 -0.294314 -1.005244 10.989102 -0.794466 -2.115246 10.989096 -0.794463 -2.115243 -4.258974 -1.684223 -0.729200 -4.258967 -1.684253 -0.729205 -0.000002 0.000003 -0.000000 5.436821 -7.313342 -5.095720 22.274557 6.921050 -27.665463 -0.083778 -37.079676 0.093284 -0.000000 0.000000 -0.000002 0.039498 6.229302 -2.603853 -0.303246 20.939511 38.521188 -0.074774 22.628869 -0.015794 -0.000001 0.000001 0.000001 -38.796646 4.368183 22.696386 53.333273 -1.065903 -1.940568 -22.479855 9.570430 -14.531226 1.259355 2.867557 -0.047977 -0.000000 0.000001 -0.000000 -43.782431 0.578619 -9.487983 56.309801 0.801916 2.010511 -24.304579 6.597602 7.768841 -0.012194 -0.109733 0.262094 0.000000 0.000001 0.000000 
-0.009342 85.743340 -0.246732 -23.299935 124.821065 17.384186 5.538547 -0.302153 -1.043778 11.069404 -0.850734 -2.209256 11.069402 -0.850749 -2.209247 -4.438962 -1.842290 -0.650597 -4.438976 -1.842298 -0.650589 0.000003 0.000003 -0.000002 4.852350 -7.386975 -3.988864 26.796815 7.032184 -27.561504 -0.077165 -37.243959 0.090611 0.000000 0.000003 0.000001 0.475751 6.921125 -2.994972 -0.123343 21.605121 37.585616 -0.063863 18.677688 -0.004393 -0.000000 0.000000 0.000000 -40.821175 4.762021 23.891507 56.485811 -1.083012 -2.034342 -24.562938 11.925830 -14.913411 1.286188 3.416937 -0.076683 0.000001 -0.000001 -0.000000 -47.518483 0.977241 -8.744380 58.622933 0.838174 2.074781 -24.963517 9.718983 7.653738 -0.012198 -0.109714 0.262094 0.000000 0.000002 0.000000 
-0.267202 84.750732 -0.155142 -29.761849 123.084858 23.167218 5.620178 -0.304135 -1.065559 11.232071 -0.896747 -2.263727 11.232049 -0.896752 -2.263712 -4.938441 -2.103615 -0.420228 -4.938466 -2.103624 -0.420210 -0.000001 0.000002 -0.000000 4.172175 -7.343401 -2.814705 32.314431 8.985706 -27.492695 -0.058740 -42.583818 0.098459 0.000002 0.000001 0.000002 0.901904 7.350385 -3.612111 -1.017941 18.656619 36.770539 -0.052062 15.031633 -0.000008 -0.000002 -0.000002 -0.000001 -44.548239 5.379270 25.063786 59.371296 -1.079869 -2.117967 -26.007871 13.210951 -15.089886 1.217272 4.404753 -0.082482 0.000000 0.000002 -0.000000 -52.483460 0.704034 -8.412548 60.612246 0.859569 2.128749 -25.033868 12.922756 7.425911 -0.012196 -0.109696 0.262097 0.000000 -0.000003 -0.000000 
-0.604771 83.753227 -0.003038 -36.757179 122.386198 29.472697 5.723797 -0.268039 -1.065731 11.439691 -0.867369 -2.276252 11.439707 -0.867387 -2.276252 -5.462701 -2.391269 -0.259786 -5.462640 -2.391274 -0.259801 -0.000003 0.000000 0.000002 3.443072 -7.303117 -1.903842 38.044560 11.926898 -28.762490 -0.037307 -49.891301 0.102521 -0.000002 -0.000002 0.000001 1.280239 7.610403 -4.277409 -2.102537 12.525102 36.299693 -0.038939 13.597762 -0.000700 0.000008 -0.000002 0.000000 -48.730043 5.759598 26.188503 62.087191 -1.072367 -2.195034 -27.205379 14.099657 -15.247086 1.294591 5.568503 -0.125648 0.000000 -0.000001 -0.000000 -57.658633 0.276921 -8.289485 62.480043 0.876380 2.178542 -24.952228 15.738124 7.145954 -0.012204 -0.109729 0.262094 0.000000 0.000002 0.000000 
-0.819576 82.748215 0.077053 -43.286372 122.387414 35.271817 5.818729 -0.147827 -1.033010 11.631934 -0.669471 -2.236019 11.631930 -0.669459 -2.236012 -5.767778 -2.619568 -0.376403 -5.767802 -2.619584 -0.376355 -0.000002 -0.000003 0.000002 2.667774 -7.346547 -1.578388 43.575746 15.689177 -33.223761 -0.023301 -57.242695 0.107063 0.000000 -0.000001 -0.000002 1.593441 7.775423 -4.909135 -2.342981 2.386567 36.316741 -0.026208 17.546129 -0.009665 -0.000001 -0.000001 -0.000001 -52.573831 5.522042 27.056568 64.695791 -1.073129 -2.267704 -28.397722 15.207070 -15.460471 1.260466 6.841301 -0.184677 0.000000 -0.000002 -0.000000 -62.391872 0.108071 -7.891484 64.275249 0.900269 2.225646 -25.039600 17.670147 6.944485 -0.012204 -0.109716 0.262068 0.000000 0.000000 0.000000 
